<svg version="1.1" id="Layer_1" xmlns="http://www.w3.org/2000/svg" xmlns:xlink="http://www.w3.org/1999/xlink" x="0px" y="0px"
	 width="100%" viewBox="0 0 304 304" enable-background="new 0 0 304 304" xml:space="preserve">
<path fill="#000000" opacity="1.000000" stroke="none" 
	d="
M167.000000,305.000000 
	C111.333344,305.000000 56.166687,305.000000 1.000022,305.000000 
	C1.000015,203.666702 1.000015,102.333389 1.000007,1.000063 
	C102.333282,1.000042 203.666565,1.000042 304.999878,1.000021 
	C304.999939,102.333275 304.999939,203.666550 304.999969,304.999908 
	C259.166656,305.000000 213.333328,305.000000 167.000000,305.000000 
M107.075859,113.886963 
	C113.005455,112.872124 118.218872,114.845596 123.140686,117.845062 
	C134.493576,124.763756 141.278809,135.619400 147.858795,146.649719 
	C149.265823,149.008362 149.698456,151.116974 148.839188,154.063461 
	C146.873871,160.802734 150.098282,166.616547 156.707901,166.662018 
	C159.054810,166.678162 159.604874,168.493835 160.512985,170.064285 
	C166.683090,180.734711 173.614929,190.739899 183.073654,198.922211 
	C195.004166,209.242676 209.041412,210.699951 221.951462,201.713791 
	C233.506363,193.670853 241.427582,182.342850 248.262985,170.250809 
	C249.495346,168.070755 250.723694,166.856674 253.463074,166.459198 
	C260.024567,165.507111 262.969543,157.424911 259.010101,152.072510 
	C256.254272,148.347153 251.404755,147.185989 246.909622,149.175247 
	C243.264221,150.788437 241.442734,155.096924 242.585297,160.325745 
	C243.091904,162.644165 243.845169,164.784729 242.484055,167.032318 
	C235.761490,178.133224 228.998535,189.172562 217.867279,196.631638 
	C208.606308,202.837433 200.755493,202.894547 191.432922,196.884109 
	C179.679504,189.306442 172.759232,177.809555 166.003006,166.127548 
	C164.894363,164.210648 165.852783,162.646179 166.272247,160.897034 
	C167.869583,154.236252 165.458313,149.168289 159.837341,148.580688 
	C156.579819,148.240128 155.334305,146.608292 153.996643,144.158310 
	C148.236481,133.608307 141.111603,124.150986 132.031525,116.133904 
	C120.134331,105.629501 105.789185,104.369812 92.734398,113.438606 
	C81.430176,121.291336 73.751778,132.327499 67.040482,144.081482 
	C65.665871,146.488907 64.400932,148.124741 61.227116,148.657028 
	C55.154743,149.675461 52.425884,157.328415 55.853893,162.467224 
	C58.516998,166.459396 62.570515,167.769638 67.235222,166.146103 
	C71.402618,164.695648 73.683746,161.091660 72.414642,155.566208 
	C71.274559,150.602539 72.561188,146.872345 75.404495,143.100632 
	C77.497932,140.323624 79.161652,137.225937 81.202225,134.405228 
	C87.719810,125.395844 95.120949,117.440903 107.075859,113.886963 
M12.093766,16.396896 
	C12.146665,19.582956 12.959805,22.568329 16.317680,23.517324 
	C20.128578,24.594347 22.460955,21.786112 24.622519,19.271059 
	C26.745312,16.801117 26.509439,14.414639 24.554911,11.661200 
	C22.661234,8.993483 20.488060,5.925434 23.935526,2.308001 
	C20.126707,2.059055 16.895353,1.393068 13.718911,2.631345 
	C14.257293,7.254987 12.423602,11.310628 12.093766,16.396896 
z"/>
</svg>